# xmcd CD database file
# 
# Track frame offsets:
# 	150
# 	17895
# 	45537
# 	71942
# 	88365
# 	109492
# 	132997
# 	152650
# 	177770
# 	201610
# 	222780
# 
# Disc length: 3320 seconds
# 
# Submitted via: Nero 6, 3, 0, 2
# 
# Revision: 0
# Processed by: cddbd v1.5PL3 Copyright (c) Steve Scherf et al.
#
DISCID=a90cf60b
DTITLE=Dave Steel - The Edge of The World
DYEAR=1900
DGENRE=
TTITLE0=The Edge of The World
TTITLE1=Arukun Moon
TTITLE2=Crying Rocks
TTITLE3=Simple Things
TTITLE4=Otway Road
TTITLE5=New Mapoon Blues
TTITLE6=Modewarre
TTITLE7=King Tide
TTITLE8=Dreams of Blue Johanna
TTITLE9=Absent Friend
TTITLE10=Winter Promise
EXTD=
EXTT0=
EXTT1=
EXTT2=
EXTT3=
EXTT4=
EXTT5=
EXTT6=
EXTT7=
EXTT8=
EXTT9=
EXTT10=
PLAYORDER=
